# xmcd CD database file
#
# Track frame offsets:
#	150
#	12076
#	28444
#	43066
#	57437
#	75734
#	91447
#	109669
#	123440
#	137271
#	154493
#	171978
#	186491
#	203736
#	220451
#	235979
#	254732
#	269393
#	310498
#	322664
#
# Disc length: 4517 seconds
#
# Revision: 0
# Processed by: cddbd v1.5.2PL0 Copyright (c) Steve Scherf et al.
# Submitted via: CDex 1.50beta10
#
DISCID=2a11a314
DTITLE=Marty Stuart - Whiskey and Rhinestones
DYEAR=2008
DGENRE=Country
TTITLE0=Hillbilly Rock
TTITLE1=Western Girls
TTITLE2=Tempted
TTITLE3=Little Things
TTITLE4=High On A Mountain Top
TTITLE5=This ones Gonna Hurt You (For A Long Long Time)
TTITLE6=You Cant Stop Love
TTITLE7=Honky Tonkins What I Do Best
TTITLE8=Kiss Me Im Gone
TTITLE9=Love And Luck
TTITLE10=That What Loves About
TTITLE11=Red Red Wine and Cheatin Songs
TTITLE12=Somebody Saved Me
TTITLE13=Move Along Train
TTITLE14=Its Time To Go Home
TTITLE15=Come Into The House Of The Lord
TTITLE16=Wounded Knee
TTITLE17=Three Chiefs
TTITLE18=Whiskey Aint Workin No More (Live)
TTITLE19=Orange Blossom Special (Live)
EXTD=YEAR: 2008
EXTT0=
EXTT1=
EXTT2=
EXTT3=
EXTT4=
EXTT5=
EXTT6=
EXTT7=
EXTT8=
EXTT9=
EXTT10=
EXTT11=
EXTT12=
EXTT13=
EXTT14=
EXTT15=
EXTT16=
EXTT17=
EXTT18=
EXTT19=
PLAYORDER=
